<svg xmlns="http://www.w3.org/2000/svg"><style>:root svg:not(:target){display:none}</style><svg viewBox="0 0 20 20" fill="none" id="arrow-right-grey"><path d="m7.5 5 5 5-5 5" stroke="#100A55" stroke-width="2" stroke-linecap="round" stroke-linejoin="round" opacity=".5"></path></svg><svg viewBox="0 0 20 20" fill="none" id="arrow"><g clip-path="url(#arrow_0)" stroke="#000929" stroke-width="2" stroke-linecap="round" stroke-linejoin="round"><path d="M4.17 10h11.66m-11.66 0 5 5m-5-5 5-5"></path></g><defs><clipPath id="arrow_0"><path fill="#fff" d="M0 0h20v20h-20z"></path></clipPath></defs></svg><svg viewBox="0 0 28 28" fill="none" id="breadcrumbs-circle-2"><circle cx="14" cy="14" r="14" fill="#7065F0"></circle><path d="M10.97 19v-1.24l2.43-2.53c.48-.5.84-.9 1.1-1.2.26-.3.45-.56.55-.78.1-.21.16-.43.16-.66 0-.37-.12-.67-.36-.89a1.27 1.27 0 0 0-.9-.32c-.39 0-.72.11-1 .34a1.8 1.8 0 0 0-.61.96l-1.43-.45a2.9 2.9 0 0 1 1.67-2.03c.43-.19.89-.28 1.37-.28.57 0 1.08.1 1.51.3a2.34 2.34 0 0 1 1.4 2.2c0 .32-.07.64-.19.95-.12.31-.3.63-.54.96a12 12 0 0 1-.93 1.08l-2.1 2.21h3.87v1.38h-6Z" fill="#fff"></path></svg><svg viewBox="0 0 28 28" fill="none" id="breadcrumbs-circle-check-mark"><circle cx="14" cy="14" r="13.25" fill="#E0DEF7" stroke="#7065F0" stroke-width="1.5"></circle><g clip-path="url(#breadcrumbs-circle-check-mark_0)"><path d="m9.33 14 3.34 3.33 6.66-6.66" stroke="#7065F0" stroke-width="2" stroke-linecap="round" stroke-linejoin="round"></path></g><defs><clipPath id="breadcrumbs-circle-check-mark_0"><path fill="#fff" transform="translate(6 6)" d="M0 0h16v16h-16z"></path></clipPath></defs></svg><svg viewBox="0 0 16 16" fill="none" id="check-mark-purple"><g clip-path="url(#check-mark-purple_0)"><path d="m3.33 8 3.34 3.33 6.66-6.66" stroke="#7065F0" stroke-width="2" stroke-linecap="round" stroke-linejoin="round"></path></g><defs><clipPath id="check-mark-purple_0"><path fill="#fff" d="M0 0h16v16h-16z"></path></clipPath></defs></svg><svg viewBox="0 0 16 16" fill="none" id="plus"><g clip-path="url(#plus_0)" stroke="#7065F0" stroke-width="2" stroke-linecap="round" stroke-linejoin="round"><path d="M8 2.67v10.66m-5.33-5.33h10.66"></path></g><defs><clipPath id="plus_0"><path fill="#fff" d="M0 0h16v16h-16z"></path></clipPath></defs></svg><svg viewBox="0 0 16 16" fill="none" id="tooltip"><path opacity=".2" d="M8 14.67a6.67 6.67 0 1 0 0-13.34 6.67 6.67 0 0 0 0 13.34Z" fill="#7065F0"></path><path d="M8 9.17a.5.5 0 0 0 .5-.5v-3.34a.5.5 0 0 0-.5-.5.5.5 0 0 0-.5.5v3.34c0 .27.23.5.5.5Zm.61 1.24a.77.77 0 0 0-.14-.22.77.77 0 0 0-.22-.14.67.67 0 0 0-.5 0 .77.77 0 0 0-.22.14.77.77 0 0 0-.14.22.66.66 0 0 0-.06.26c0 .08.02.17.06.25.03.09.08.15.14.22.06.06.14.1.22.14.08.03.16.05.25.05s.17-.02.25-.05a.77.77 0 0 0 .22-.14.64.64 0 0 0 .14-.22.66.66 0 0 0 .06-.25.66.66 0 0 0-.06-.26Z" fill="#7065F0"></path></svg><svg viewBox="0 0 56 56" fill="none" id="white-house"><circle cx="28" cy="28" r="28" fill="#100A55"></circle><g clip-path="url(#white-house_0)"><path d="m36.47 24-6.48-5.04a3.24 3.24 0 0 0-3.98 0l-6.48 5.04a3.24 3.24 0 0 0-1.25 2.55v8.74a2.43 2.43 0 0 0 2.43 2.43h14.58a2.43 2.43 0 0 0 2.43-2.43v-8.74c0-1-.46-1.94-1.25-2.55Z" fill="#fff" stroke="#fff" stroke-width="2" stroke-linecap="round" stroke-linejoin="round"></path></g><defs><clipPath id="white-house_0"><path fill="#fff" transform="translate(16.333 16.334)" d="M0 0h23.33v23.33h-23.33z"></path></clipPath></defs></svg></svg>