<svg viewBox="0 0 28 28" fill="none" xmlns="http://www.w3.org/2000/svg"><circle cx="14" cy="14" r="14" fill="#7065F0"/><path d="M10.97 19v-1.24l2.43-2.53c.48-.5.84-.9 1.1-1.2.26-.3.45-.56.55-.78.1-.21.16-.43.16-.66 0-.37-.12-.67-.36-.89a1.27 1.27 0 0 0-.9-.32c-.39 0-.72.11-1 .34a1.8 1.8 0 0 0-.61.96l-1.43-.45a2.9 2.9 0 0 1 1.67-2.03c.43-.19.89-.28 1.37-.28.57 0 1.08.1 1.51.3a2.34 2.34 0 0 1 1.4 2.2c0 .32-.07.64-.19.95-.12.31-.3.63-.54.96a12 12 0 0 1-.93 1.08l-2.1 2.21h3.87v1.38h-6Z" fill="#fff"/></svg>