<svg viewBox="0 0 16 16" fill="none" xmlns="http://www.w3.org/2000/svg"><path opacity=".2" d="M8 14.67a6.67 6.67 0 1 0 0-13.34 6.67 6.67 0 0 0 0 13.34Z" fill="#7065F0"/><path d="M8 9.17a.5.5 0 0 0 .5-.5v-3.34a.5.5 0 0 0-.5-.5.5.5 0 0 0-.5.5v3.34c0 .27.23.5.5.5Zm.61 1.24a.77.77 0 0 0-.14-.22.77.77 0 0 0-.22-.14.67.67 0 0 0-.5 0 .77.77 0 0 0-.22.14.77.77 0 0 0-.14.22.66.66 0 0 0-.06.26c0 .08.02.17.06.25.03.09.08.15.14.22.06.06.14.1.22.14.08.03.16.05.25.05s.17-.02.25-.05a.77.77 0 0 0 .22-.14.64.64 0 0 0 .14-.22.66.66 0 0 0 .06-.25.66.66 0 0 0-.06-.26Z" fill="#7065F0"/></svg>